<?xml version="1.0" standalone="no"?>
<!DOCTYPE svg PUBLIC "-//W3C//DTD SVG 1.1//EN" "http://www.w3.org/Graphics/SVG/1.1/DTD/svg11.dtd" >
<svg xmlns="http://www.w3.org/2000/svg">
<metadata>Generated by IcoMoon</metadata>
<defs>
<font id="tezos-icons" horiz-adv-x="1024">
<font-face units-per-em="1024" ascent="960" descent="-64" />
<missing-glyph horiz-adv-x="1024" />
<glyph unicode="&#x20;" horiz-adv-x="512" d="" />
<glyph unicode="&#xa729;" glyph-name="tez" horiz-adv-x="794" d="M343.045 3.633c47.805-42.092 110.599-67.633 179.372-67.633 83.187 0 157.624 37.366 207.369 96.192 39.817 47.086 63.814 107.921 63.814 174.346 0 125.321-85.407 230.736-201.323 261.477-3.159 0.838-6.341 1.62-9.544 2.346 92.807 127.564 139.694 191.829 139.694 191.829v119.124h-483.604v178.687l-119.408-0.482v-178.204h-119.414v-119.124h119.414c0 0 0-191.070 0-274.457 0-131.037 17.428-202.524 196.54-202.524 0 35.737 0 71.475 0 107.212-71.645 0-77.132 29.781-77.132 65.518s0 304.25 0 304.25l322.403-0.482-238.817-303.285h200.009c84.081 0 152.246-68.002 152.246-151.884s-68.164-151.884-152.246-151.884c-38.613 0-73.868 14.341-100.707 37.975z" />
<glyph unicode="&#xe900;" glyph-name="arrow-down" d="M135.256 437.551c-8.708 10.449-9.578 21.769-2.612 33.959 5.225 12.191 15.673 18.286 31.347 18.286h161.959v436.245c0 22.64 11.32 33.959 33.959 33.959h303.020c20.898 0 31.347-11.32 31.347-33.959v-436.245h164.571c12.191 0 21.769-6.095 28.735-18.286s6.095-23.51-2.612-33.959l-344.816-488.49c-5.224-8.708-14.803-13.061-28.735-13.061-12.191 0-20.898 4.354-26.122 13.061l-350.041 488.49z" />
<glyph unicode="&#xe901;" glyph-name="arrow-up" d="M884.971 458.449c8.708-10.449 9.578-21.769 2.612-33.959s-16.544-18.286-28.735-18.286h-164.571v-436.245c0-22.64-10.449-33.959-31.347-33.959h-303.020c-22.64 0-33.959 11.32-33.959 33.959v436.245h-161.959c-15.674 0-26.122 6.095-31.347 18.286-6.966 12.191-6.095 23.51 2.612 33.959l347.429 488.49c5.224 8.708 13.932 13.061 26.122 13.061 13.932 0 23.51-4.354 28.735-13.061l347.429-488.49z" />
<glyph unicode="&#xe902;" glyph-name="bell" d="M512.492 782.769h-4.923l-59.077-12.308c-55.795-11.487-101.743-40.615-137.846-87.385s-54.154-99.692-54.154-158.769v-312.615l-22.154-24.615-19.692-19.692h590.769l-19.692 19.692-22.154 24.615v312.615c0 59.077-18.051 112-54.154 158.769s-82.051 75.897-137.846 87.385c-27.898 8.205-47.59 12.308-59.077 12.308zM453.415 937.846c14.769 14.769 33.641 22.154 56.615 22.154s41.436-7.385 55.385-22.154c13.949-14.769 20.923-32.82 20.923-54.154v-36.923c73.846-18.051 134.974-57.025 183.385-116.923s72.615-128.41 72.615-205.538v-280.615l100.923-103.385v-51.692h-866.462v51.692l100.923 103.385v280.615c0 77.129 24.205 145.641 72.615 205.538s109.538 98.872 183.385 116.923v36.923c0 21.333 6.564 39.385 19.692 54.154zM610.954 39.385c0-27.898-9.846-52.102-29.538-72.615s-43.487-30.769-71.385-30.769c-27.898 0-51.692 10.256-71.385 30.769s-29.538 44.718-29.538 72.615h201.846z" />
<glyph unicode="&#xe903;" glyph-name="caret-left" d="M739.2 950.4c6.4 6.4 16 9.6 28.8 9.6 14.933 0 27.2-5.333 36.8-16s14.4-23.467 14.4-38.4v-915.2c0-14.933-4.8-27.733-14.4-38.4s-21.867-16-36.8-16c-12.8 0-22.4 3.2-28.8 9.6l-6.4 6.4-499.2 435.2c-19.2 19.2-28.8 39.467-28.8 60.8s9.6 41.6 28.8 60.8l499.2 435.2 6.4 6.4z" />
<glyph unicode="&#xe904;" glyph-name="caret-right" d="M284.8-54.4c-6.4-6.4-16-9.6-28.8-9.6-14.933 0-27.2 5.333-36.8 16s-14.4 23.467-14.4 38.4v915.2c0 14.933 4.8 27.733 14.4 38.4s21.867 16 36.8 16c10.667 0 19.2-3.2 25.6-9.6l9.6-6.4 499.2-435.2c19.2-19.2 28.8-39.467 28.8-60.8s-9.6-41.6-28.8-60.8l-499.2-435.2-6.4-6.4z" />
<glyph unicode="&#xe905;" glyph-name="check" d="M324.949 225.119l617.131 606.881 81.92-80.559-699.051-687.441-324.949 319.552 81.92 80.559z" />
<glyph unicode="&#xe906;" glyph-name="copy" d="M865.498 29.685v651.438h-509.821v-651.438h509.821zM865.498 772.63c24.692 0 46.479-9.078 65.362-27.234s28.323-39.58 28.323-64.272v-651.438c0-24.692-9.441-46.479-28.323-65.362s-40.669-28.323-65.362-28.323h-509.821c-24.692 0-46.479 9.441-65.362 28.323s-28.323 40.669-28.323 65.362v651.438c0 24.692 9.441 46.116 28.323 64.272s40.669 27.234 65.362 27.234h509.821zM726.060 960v-93.685h-557.753v-651.438h-91.506v651.438c0 24.692 9.078 46.479 27.234 65.362s39.58 28.323 64.272 28.323h557.753z" />
<glyph unicode="&#xe907;" glyph-name="ellipsis" d="M121.905 332.19c-67.326 0-121.905 54.579-121.905 121.905s54.579 121.905 121.905 121.905c67.326 0 121.905-54.579 121.905-121.905s-54.579-121.905-121.905-121.905zM512 332.19c-67.326 0-121.905 54.579-121.905 121.905s54.579 121.905 121.905 121.905c67.326 0 121.905-54.579 121.905-121.905s-54.579-121.905-121.905-121.905zM902.095 332.19c-67.326 0-121.905 54.579-121.905 121.905s54.579 121.905 121.905 121.905c67.326 0 121.905-54.579 121.905-121.905s-54.579-121.905-121.905-121.905z" />
<glyph unicode="&#xe908;" glyph-name="gear" d="M899.804 397.929l115.36-83.452c9.818-9.818 11.454-21.272 4.909-34.362l-105.542-174.267c-6.545-13.091-16.363-17.181-29.453-12.272l-132.541 51.544c-40.908-27.817-70.361-44.998-88.36-51.544l-19.636-134.995c-3.273-13.091-12.272-19.636-26.999-19.636h-208.629c-14.727 0-23.726 6.545-26.999 19.636l-19.636 134.995c-24.545 9.818-53.998 26.999-88.36 51.544l-132.541-51.544c-13.091-6.545-22.908-2.455-29.453 12.272l-105.542 174.267c-8.182 14.727-6.545 26.181 4.909 34.362l110.451 83.452c0 4.909-0.409 13.090-1.227 24.545s-1.227 20.454-1.227 26.999c0 6.545 0.409 15.545 1.227 26.999s1.227 19.636 1.227 24.545l-112.905 83.452c-9.818 9.818-11.454 21.272-4.909 34.362l105.542 174.267c6.545 13.091 16.363 17.181 29.453 12.272l132.541-51.544c40.908 27.817 70.361 44.998 88.36 51.544l19.636 134.995c3.273 13.091 12.272 19.636 26.999 19.636h208.629c14.727 0 23.726-6.545 26.999-19.636l17.181-134.995c24.545-9.818 53.998-26.999 88.36-51.544l130.086 51.544c13.091 6.545 23.726 2.454 31.908-12.272l105.542-174.267c8.182-14.727 6.545-26.181-4.909-34.362l-110.451-83.452c0-4.909 0.409-13.090 1.227-24.545s1.227-20.454 1.227-26.999c0-24.545-0.818-41.726-2.454-51.544zM379.459 321.841c35.999-34.363 79.361-51.544 130.086-51.544s94.087 17.181 130.086 51.544c35.999 34.363 53.998 76.906 53.998 127.632s-17.999 93.269-53.998 127.632c-35.999 34.363-79.361 51.544-130.086 51.544s-93.678-17.181-128.859-51.544c-35.181-34.363-52.771-76.906-52.771-127.632s17.181-93.269 51.544-127.632z" />
<glyph unicode="&#xe909;" glyph-name="plus" d="M1024 533.333v-170.667h-426.667v-426.667h-170.667v426.667h-426.667v170.667h426.667v426.667h170.667v-426.667z" />
<glyph unicode="&#xe90a;" glyph-name="caret-down" d="M9.6 675.2c-6.4 6.4-9.6 16-9.6 28.8 0 14.933 5.333 27.2 16 36.8s23.467 14.4 38.4 14.4h915.2c14.933 0 27.733-4.8 38.4-14.4s16-21.867 16-36.8c0-10.667-3.2-19.2-9.6-25.6l-6.4-9.6-435.2-499.2c-19.2-19.2-39.467-28.8-60.8-28.8s-41.6 9.6-60.8 28.8l-435.2 499.2-6.4 6.4z" />
<glyph unicode="&#xe90b;" glyph-name="tiles" d="M341.889 960h-256.834c-23.349 0-43.361-8.339-60.039-25.016s-25.016-36.691-25.016-60.039v-256.834c0-23.349 8.339-43.361 25.016-60.039s36.69-25.016 60.039-25.016h256.834c23.349 0 43.362 8.339 60.039 25.016s25.016 36.691 25.016 60.039v256.834c0 23.349-8.339 43.361-25.016 60.039s-36.69 25.016-60.039 25.016zM938.945 960h-256.834c-23.349 0-43.361-8.339-60.039-25.016s-25.016-36.691-25.016-60.039v-256.834c0-23.349 8.339-43.361 25.016-60.039s36.691-25.016 60.039-25.016h256.834c23.349 0 43.361 8.339 60.039 25.016s25.016 36.691 25.016 60.039v256.834c0 23.349-8.339 43.361-25.016 60.039s-36.691 25.016-60.039 25.016zM341.889 362.945h-256.834c-23.349 0-43.361-8.339-60.039-25.016s-25.016-37.246-25.016-61.707v-255.166c0-23.349 8.339-43.361 25.016-60.039s36.69-25.016 60.039-25.016h256.834c23.349 0 43.362 8.339 60.039 25.016s25.016 36.69 25.016 60.039v255.166c0 24.461-8.339 45.029-25.016 61.707s-36.69 25.016-60.039 25.016zM938.945 362.945h-256.834c-23.349 0-43.361-8.339-60.039-25.016s-25.016-37.246-25.016-61.707v-255.166c0-23.349 8.339-43.361 25.016-60.039s36.691-25.016 60.039-25.016h256.834c23.349 0 43.361 8.339 60.039 25.016s25.016 36.69 25.016 60.039v255.166c0 24.461-8.339 45.029-25.016 61.707s-36.691 25.016-60.039 25.016z" />
<glyph unicode="&#xe90c;" glyph-name="warning" d="M1019.265 28.543l-474.975 887.115c-3.472 5.553-7.986 10.065-13.541 13.536s-11.805 5.206-18.749 5.206c-6.944 0-13.194-1.735-18.749-5.206s-10.069-7.983-13.541-13.536l-474.975-887.115c-3.472-5.553-5.034-11.627-4.687-18.221s1.91-12.668 4.687-18.221c3.472-5.553 8.159-9.892 14.062-13.015s11.979-4.685 18.228-4.685h949.951c6.25 0 12.326 1.562 18.228 4.685s10.59 7.462 14.062 13.015c2.778 5.553 4.34 11.627 4.687 18.221s-1.215 12.668-4.687 18.221zM544 102.4h-96v96h96v-96zM544 262.4h-96v352h96v-352z" />
<glyph unicode="&#xe90d;" glyph-name="x" d="M896 754.685l-306.685-306.685 306.685-306.685-77.315-77.315-306.685 306.685-306.685-306.685-77.315 77.315 306.685 306.685-306.685 306.685 77.315 77.315 306.685-306.685 306.685 306.685z" />
<glyph unicode="&#xe90e;" glyph-name="arrow-right" d="M10.667 482.86c-7.117-7.117-10.667-16.896-10.667-29.338s3.994-22.665 11.998-30.669c8.004-7.987 18.227-11.998 30.669-11.998h834.662l-181.333-183.996c-21.333-19.558-21.777-39.561-1.331-60.006s40.448-20.002 60.006 1.348l256 255.983c5.325 3.567 8.892 8.004 10.667 13.346 1.775 5.325 2.662 10.667 2.662 15.991 0 5.342-0.887 10.667-2.662 16.009-1.775 5.325-5.342 9.779-10.667 13.329l-256 256c-19.558 21.333-39.561 21.777-60.006 1.331s-20.002-40.448 1.331-59.989l181.333-184.013h-834.662c-12.442 0-23.108-4.437-32-13.329z" />
<glyph unicode="&#xe90f;" glyph-name="letter" d="M960 832h-896c-17.333 0-32.333-6.333-45-19s-19-27.667-19-45v-640c0-17.333 6.333-32.333 19-45s27.667-19 45-19h896c17.333 0 32.333 6.333 45 19s19 27.667 19 45v640c0 17.333-6.333 32.333-19 45s-27.667 19-45 19zM364 382l148-100 148 100 254-254h-804l254 254zM64 174v412l246-168-246-244zM714 420l246 170v-416l-246 246zM960 768v-104l-2 2-446-308-448 306v104h896z" />
<glyph unicode="&#xe910;" glyph-name="pop-out" d="M950.857 82.286c0-19.81-7.238-36.952-21.714-51.429s-31.619-21.714-51.428-21.714l-733.714-1.143c-19.81 0-36.762 7.048-50.857 21.143s-21.143 31.048-21.143 50.857l1.143 733.714c0 19.81 7.238 36.952 21.714 51.428s31.619 21.714 51.429 21.714h402.286v73.143h-402.286c-39.619 0-73.905-16.762-102.857-50.286s-43.429-70.476-43.429-110.857v-718.857c0-39.619 14.095-73.524 42.286-101.714s62.095-42.286 101.714-42.286h718.857c40.381 0 77.333 14.476 110.857 43.429s50.286 63.238 50.286 102.857v402.286h-73.143v-402.286zM986.286 960h-254.857c-10.667 0-19.428-3.619-26.286-10.857s-10.286-15.809-10.286-25.714c0-9.905 3.429-18.476 10.286-25.714s15.619-10.857 26.286-10.857l161.143 1.143-552-525.714c-7.619-7.619-11.429-16.19-11.429-25.714s3.809-18.095 11.429-25.714c6.857-6.857 15.619-10.286 26.286-10.286s19.429 3.428 26.286 10.286l556.571 531.428 1.143-174.857c0-9.905 3.429-18.476 10.286-25.714s15.619-10.857 26.286-10.857c10.667 0 19.428 3.619 26.286 10.857s10.286 15.809 10.286 25.714v257.143c0 9.905-3.619 18.286-10.857 25.143s-16.19 10.286-26.857 10.286z" />
<glyph unicode="&#xe911;" glyph-name="telegram" d="M1007.56 953.134c12.564-9.138 17.704-21.321 15.42-36.551l-146.202-877.214c-1.904-11.041-7.995-19.608-18.275-25.7-5.33-3.046-11.232-4.569-17.704-4.569-4.188 0-8.757 0.952-13.706 2.856l-300.971 122.787-170.189-186.75c-6.853-7.995-15.801-11.993-26.842-11.993-5.33 0-9.709 0.761-13.135 2.284-7.234 2.665-12.945 7.139-17.133 13.421s-6.282 13.231-6.282 20.845v258.138l-269.56 110.223c-14.087 5.33-21.702 15.8-22.844 31.411-1.142 14.849 4.949 26.080 18.275 33.695l950.315 548.258c13.326 7.996 26.271 7.615 38.835-1.142zM812.243 97.051l126.214 755.569-818.961-472.302 191.891-78.241 492.861 364.935-272.987-455.169 280.982-114.792z" />
<glyph unicode="&#xe912;" glyph-name="warning-circle" d="M562.479 397.521v307.681h-100.958v-307.681h100.958zM562.479 190.798v103.362h-100.958v-103.362h100.958zM512 960c141.021 0 261.608-50.078 361.765-150.235s150.235-220.744 150.235-361.765c0-141.021-50.078-261.608-150.235-361.765s-220.744-150.235-361.765-150.235c-141.021 0-261.608 50.078-361.765 150.235s-150.235 220.744-150.235 361.765c0 141.021 50.078 261.608 150.235 361.765s220.744 150.235 361.765 150.235z" />
<glyph unicode="&#xe913;" glyph-name="x-thick" d="M890.003 185.997c5.338-5.338 8-11.994 8-19.994 0-8.013-2.662-14.669-8-20.006l-75.994-73.997c-5.338-5.338-11.341-8-18.010-8-8 0-14.669 2.662-19.994 8l-262.003 262.003-262.003-262.003c-5.325-5.338-11.328-8-17.997-8-8 0-14.669 2.662-20.006 8l-75.994 73.997c-5.338 5.338-8 11.994-8 20.006 0 8 2.662 14.656 8 19.994l264 262.003-264 259.994c-13.338 13.338-13.338 26.675 0 40l73.997 76.006c8 5.325 14.669 8 20.006 8 8 0 14.669-2.675 19.994-8l262.003-260.006 262.003 260.006c8 5.325 14.669 8 19.994 8 8 0 14.669-2.675 20.006-8l73.997-76.006c13.338-13.325 13.338-25.997 0-37.99l-264-260.006 264-264z" />
<glyph unicode="&#xe914;" glyph-name="invalid" d="M1000.727-64h-139.636c-6.788 0-12.364 2.182-16.727 6.545s-6.545 9.939-6.545 16.727c0 6.788 2.182 12.364 6.545 16.727s9.939 6.545 16.727 6.545h116.364v116.364c0 6.788 2.182 12.364 6.545 16.727s9.939 6.545 16.727 6.545c6.788 0 12.364-2.182 16.727-6.545s6.545-9.939 6.545-16.727v-139.636c0-6.788-2.182-12.364-6.545-16.727s-9.939-6.545-16.727-6.545zM1000.727 215.273c-6.788 0-12.364 2.182-16.727 6.545s-6.545 9.939-6.545 16.727v139.636c0 6.788 2.182 12.364 6.545 16.727s9.939 6.545 16.727 6.545c6.788 0 12.364-2.182 16.727-6.545s6.545-9.939 6.545-16.727v-139.636c0-6.788-2.182-12.364-6.545-16.727s-9.939-6.545-16.727-6.545zM1000.727 494.545c-6.788 0-12.364 2.182-16.727 6.545s-6.545 9.939-6.545 16.727v139.636c0 6.788 2.182 12.364 6.545 16.727s9.939 6.545 16.727 6.545c6.788 0 12.364-2.182 16.727-6.545s6.545-9.939 6.545-16.727v-139.636c0-6.788-2.182-12.364-6.545-16.727s-9.939-6.545-16.727-6.545zM1000.727 773.818c-6.788 0-12.364 2.182-16.727 6.545s-6.545 9.939-6.545 16.727v116.364h-116.364c-6.788 0-12.364 2.182-16.727 6.545s-6.545 9.939-6.545 16.727c0 6.788 2.182 12.364 6.545 16.727s9.939 6.545 16.727 6.545h139.636c6.788 0 12.364-2.182 16.727-6.545s6.545-9.939 6.545-16.727v-139.636c0-6.788-2.182-12.364-6.545-16.727s-9.939-6.545-16.727-6.545zM721.455-64h-139.636c-6.788 0-12.364 2.182-16.727 6.545s-6.545 9.939-6.545 16.727c0 6.788 2.182 12.364 6.545 16.727s9.939 6.545 16.727 6.545h139.636c6.788 0 12.364-2.182 16.727-6.545s6.545-9.939 6.545-16.727c0-6.788-2.182-12.364-6.545-16.727s-9.939-6.545-16.727-6.545zM721.455 913.455h-139.636c-6.788 0-12.364 2.182-16.727 6.545s-6.545 9.939-6.545 16.727c0 6.788 2.182 12.364 6.545 16.727s9.939 6.545 16.727 6.545h139.636c6.788 0 12.364-2.182 16.727-6.545s6.545-9.939 6.545-16.727c0-6.788-2.182-12.364-6.545-16.727s-9.939-6.545-16.727-6.545zM442.182 913.455h-139.636c-6.788 0-12.364 2.182-16.727 6.545s-6.545 9.939-6.545 16.727c0 6.788 2.182 12.364 6.545 16.727s9.939 6.545 16.727 6.545h139.636c6.788 0 12.364-2.182 16.727-6.545s6.545-9.939 6.545-16.727c0-6.788-2.182-12.364-6.545-16.727s-9.939-6.545-16.727-6.545zM162.909-64h-139.636c-6.788 0-12.364 2.182-16.727 6.545s-6.545 9.939-6.545 16.727v139.636c0 6.788 2.182 12.364 6.545 16.727s9.939 6.545 16.727 6.545c6.788 0 12.364-2.182 16.727-6.545s6.545-9.939 6.545-16.727v-116.364h116.364c6.788 0 12.364-2.182 16.727-6.545s6.545-9.939 6.545-16.727c0-6.788-2.182-12.364-6.545-16.727s-9.939-6.545-16.727-6.545zM162.909 913.455h-116.364v-116.364c0-6.788-2.182-12.364-6.545-16.727s-9.939-6.545-16.727-6.545c-6.788 0-12.364 2.182-16.727 6.545s-6.545 9.939-6.545 16.727v139.636c0 6.788 2.182 12.364 6.545 16.727s9.939 6.545 16.727 6.545h139.636c6.788 0 12.364-2.182 16.727-6.545s6.545-9.939 6.545-16.727c0-6.788-2.182-12.364-6.545-16.727s-9.939-6.545-16.727-6.545zM23.273 680.727c6.788 0 12.364-2.182 16.727-6.545s6.545-9.939 6.545-16.727v-139.636c0-6.788-2.182-12.364-6.545-16.727s-9.939-6.545-16.727-6.545c-6.788 0-12.364 2.182-16.727 6.545s-6.545 9.939-6.545 16.727v139.636c0 6.788 2.182 12.364 6.545 16.727s9.939 6.545 16.727 6.545zM23.273 401.455c6.788 0 12.364-2.182 16.727-6.545s6.545-9.939 6.545-16.727v-139.636c0-6.788-2.182-12.364-6.545-16.727s-9.939-6.545-16.727-6.545c-6.788 0-12.364 2.182-16.727 6.545s-6.545 9.939-6.545 16.727v139.636c0 6.788 2.182 12.364 6.545 16.727s9.939 6.545 16.727 6.545zM733.091 274.909l-48-48c-3.879-3.879-8.97-5.818-15.273-5.818s-11.394 1.939-15.273 5.818l-133.818 133.818-133.818-133.818c-4.849-3.879-10.182-5.818-16-5.818s-11.152 1.939-16 5.818l-46.545 48c-4.849 3.879-7.273 8.97-7.273 15.273s2.424 11.394 7.273 15.273l133.818 133.818-133.818 133.818c-4.849 4.849-7.273 10.182-7.273 16s2.424 11.152 7.273 16l46.545 46.545c4.849 4.849 10.182 7.273 16 7.273s11.151-2.424 16-7.273l133.818-133.818 133.818 133.818c3.879 4.849 8.97 7.273 15.273 7.273s11.394-2.424 15.273-7.273l48-46.545c3.879-4.849 5.818-10.182 5.818-16s-1.939-11.151-5.818-16l-133.818-133.818 133.818-133.818c3.879-3.879 5.818-8.97 5.818-15.273s-1.939-11.394-5.818-15.273zM302.545-17.455h139.636c6.788 0 12.364-2.182 16.727-6.545s6.545-9.939 6.545-16.727c0-6.788-2.182-12.364-6.545-16.727s-9.939-6.545-16.727-6.545h-139.636c-6.788 0-12.364 2.182-16.727 6.545s-6.545 9.939-6.545 16.727c0 6.788 2.182 12.364 6.545 16.727s9.939 6.545 16.727 6.545z" />
<glyph unicode="&#xe915;" glyph-name="question-mark" d="M766.757 888.922c-31.837 23.693-68.116 41.462-108.837 53.308s-85.885 17.769-135.491 17.769c-37.020 0-71.262-4.257-102.729-12.772s-59.786-20.916-84.96-37.205c-40.722-25.914-71.818-60.712-93.289-104.395s-33.688-96.251-36.649-157.703h187.689c0 17.77 2.777 35.354 8.329 52.753s13.512 34.243 23.878 50.532c10.366 17.029 24.433 29.616 42.202 37.76s39.241 12.217 64.414 12.217c25.173 0 46.644-3.332 64.414-9.995s31.467-16.659 41.092-29.986c9.625-13.327 16.844-27.579 21.656-42.758s7.219-30.911 7.219-47.2c0-14.068-3.147-27.765-9.44-41.092s-13.882-25.914-22.767-37.76c-4.442-6.664-9.81-13.142-16.103-19.435s-13.512-12.402-21.656-18.325c0 0-18.695-13.142-56.085-39.426s-67.561-52.753-90.513-79.407c-12.587-14.808-20.546-33.873-23.878-57.195s-5.368-51.272-6.108-83.849c0-2.221 0.926-5.183 2.777-8.885s6.849-5.553 14.993-5.553c8.144 0 32.762 0 73.854 0s65.339 0 72.743 0c6.664 0 11.106 2.036 13.327 6.108s3.332 7.219 3.332 9.44c0.74 11.846 1.851 21.471 3.332 28.875s3.332 14.438 5.553 21.101c3.702 13.327 10.736 25.544 21.101 36.649s21.841 21.471 34.428 31.096l51.087 35.539c23.693 18.51 44.423 35.168 62.193 49.976s30.726 28.135 38.871 39.981c14.067 19.25 25.543 40.721 34.428 64.414s13.327 49.606 13.327 77.741c0 45.904-8.144 86.255-24.433 121.054s-40.721 63.674-73.299 86.626zM520.206 168.152c-32.577 0.74-60.527-9.255-83.849-29.986s-35.724-48.495-37.205-83.294c-0.74-35.539 9.995-64.044 32.207-85.515s49.606-32.577 82.183-33.318c33.318-0.74 61.637 8.885 84.96 28.875s35.354 47.755 36.094 83.294c1.481 34.798-8.885 63.118-31.096 84.96s-49.976 33.503-83.294 34.983z" />
<glyph unicode="&#xe916;" glyph-name="play" d="M885.975 500.913l-695.494 448.411c-20.59 10.676-40.418 13.346-59.483 8.007s-28.598-27.835-28.598-67.49v-883.094c0-36.605 10.104-58.72 30.313-66.346s39.465-5.338 57.767 6.863l695.494 448.411c14.49 14.49 21.734 32.029 21.734 52.62s-7.245 38.13-21.734 52.62z" />
<glyph unicode="&#xe917;" glyph-name="disconnected" d="M738 671c-11.333 24-26 45.833-44 65.5s-38 36.5-60 50.5c-22 14-46 25-72 33s-53.333 12-82 12c-38 0-73.833-6.833-107.5-20.5s-63.333-32.667-89-57c-25.667-24.333-46.5-52.666-62.5-85s-25.333-67.166-28-104.5c-28-8-53.833-19.833-77.5-35.5s-44-34.167-61-55.5c-17-21.333-30.333-45.167-40-71.5s-14.5-53.833-14.5-82.5c0-34 6.667-66 20-96s31.5-56.5 54.5-79.5c23-23 50-41.5 81-55.5s64.5-22 100.5-24c0 0 23 0 69 0s96.833-0.167 152.5-0.5c55.667-0.333 107-0.5 154-0.5s71.167 0 72.5 0c42 0 82.333 8 121 24s72.667 37.667 102 65c29.333 27.333 52.833 59.5 70.5 96.5s26.5 76.5 26.5 118.5c0 40.667-7.333 78.833-22 114.5s-35 67-61 94c-26 27-56.333 49-91 66s-72 26.5-112 28.5zM704 128c-1.333 0-25.333 0-72 0s-97.833 0-153.5 0c-55.667 0-106.666 0-153 0s-69.5 0-69.5 0c0 0-10 2-30 6s-42.167 12.5-66.5 25.5c-24.333 13-46.333 32.167-66 57.5s-29.5 59.667-29.5 103c0 24 5.333 47.167 16 69.5s24.667 42.333 42 60c17.333 17.667 37.667 32 61 43s47.666 17.5 73 19.5c0 33.334 5.167 65.333 15.5 96s25.167 57.833 44.5 81.5c19.333 23.667 42.833 42.667 70.5 57s58.833 21.5 93.5 21.5c54.667 0 100-15 136-45s60.333-68.333 73-115c40 1.333 76.333-4.667 109-18s60.833-30.833 84.5-52.5c23.667-21.667 42.167-46.167 55.5-73.5s20.667-54 22-80c2-35.334-4.833-68.5-20.5-99.5s-36.167-58.167-61.5-81.5c-25.334-23.334-53.5-41.667-84.5-55s-60.833-20-89.5-20zM608 480h-128l50 133c3.333 8.667 3.333 17 0 25s-9.333 13.667-18 17c-8 3.333-16 3.333-24 0s-13.667-9-17-17l-74-178c-1.333-4-2-8.167-2-12.5s1-8.5 3-12.5c2-6 5.667-10.833 11-14.5s11.333-5.5 18-5.5l137 1-81-145c-4-8-4.5-16.333-1.5-25s8.5-15 16.5-19c7.333-3.333 15-3.5 23-0.5s13.667 8.833 17 17.5c0 0 5.333 9.667 16 29s22.333 41.167 35 65.5c12.667 24.333 24.333 47.5 35 69.5s16 35.333 16 40c0 8.667-3.167 16.167-9.5 22.5s-13.833 9.5-22.5 9.5z" />
<glyph unicode="&#xe918;" glyph-name="download" d="M681 436l-137-137v309c0 8.667-3.167 16.167-9.5 22.5s-13.833 9.5-22.5 9.5c-8.667 0-16.167-3.167-22.5-9.5s-9.5-13.833-9.5-22.5v-308l-136 136c-6.667 6-14.5 9-23.5 9s-16.5-3-22.5-9c-6-6.667-9-14.333-9-23s3-16.333 9-23l190-189c3.333-3.333 7.167-5.667 11.5-7s8.5-2 12.5-2c4.667 0 9.167 0.667 13.5 2s8.167 3.667 11.5 7l190 189c6 6.667 9 14.333 9 23s-3 16.333-9 23c-6 6-13.5 9-22.5 9s-16.833-3-23.5-9zM738 671c-11.333 24-26 45.833-44 65.5s-38 36.5-60 50.5c-22 14-46 25-72 33s-53.333 12-82 12c-38 0-73.833-6.833-107.5-20.5s-63.333-32.667-89-57c-25.667-24.333-46.5-52.666-62.5-85s-25.333-67.166-28-104.5c-28-8-53.833-19.833-77.5-35.5s-44-34.167-61-55.5c-17-21.333-30.333-45.167-40-71.5s-14.5-53.833-14.5-82.5c0-34 6.667-66 20-96s31.5-56.5 54.5-79.5c23-23 50-41.5 81-55.5s64.5-22 100.5-24c0 0 23 0 69 0s96.833-0.167 152.5-0.5c55.667-0.333 107-0.5 154-0.5s71.167 0 72.5 0c42 0 82.333 8 121 24s72.667 37.667 102 65c29.333 27.333 52.833 59.5 70.5 96.5s26.5 76.5 26.5 118.5c0 40.667-7.333 78.833-22 114.5s-35 67-61 94c-26 27-56.333 49-91 66s-72 26.5-112 28.5zM704 128c-1.333 0-25.333 0-72 0s-97.833 0-153.5 0c-55.667 0-106.666 0-153 0s-69.5 0-69.5 0c0 0-10 2-30 6s-42.167 12.5-66.5 25.5c-24.333 13-46.333 32.167-66 57.5s-29.5 59.667-29.5 103c0 24 5.333 47.167 16 69.5s24.667 42.333 42 60c17.333 17.667 37.667 32 61 43s47.666 17.5 73 19.5c0 33.334 5.167 65.333 15.5 96s25.167 57.833 44.5 81.5c19.333 23.667 42.833 42.667 70.5 57s58.833 21.5 93.5 21.5c54.667 0 100-15 136-45s60.333-68.333 73-115c40 1.333 76.333-4.667 109-18s60.833-30.833 84.5-52.5c23.667-21.667 42.167-46.167 55.5-73.5s20.667-54 22-80c2-35.334-4.833-68.5-20.5-99.5s-36.167-58.167-61.5-81.5c-25.334-23.334-53.5-41.667-84.5-55s-60.833-20-89.5-20z" />
<glyph unicode="&#xe919;" glyph-name="alert-badge" d="M557.753 402.791v278.877h-91.506v-278.877h91.506zM557.753 215.421v93.685h-91.506v-93.685h91.506zM1024 448.545l-113.294-128.545 15.251-172.119-167.762-37.038-87.149-148.153-159.047 67.54-159.047-67.54-87.149 145.974-167.762 39.217 15.251 172.119-113.294 128.545 113.294 130.723-15.251 169.94 167.762 37.038 87.149 148.153 159.047-67.54 159.047 67.54 87.149-148.153 167.762-37.038-15.251-172.119 113.294-128.545z" />
<glyph unicode="&#xe91a;" glyph-name="id-badge" d="M960 806.4c17.333 0 32.333-6.333 45-19s19-27.667 19-45v-704c0-17.333-6.333-32.333-19-45s-27.667-19-45-19h-896c-17.333 0-32.333 6.333-45 19s-19 27.667-19 45v704c0 17.333 6.333 32.333 19 45s27.667 19 45 19h320v-64c-17.333 0-32.333-6.333-45-19s-19-27.667-19-45c0-17.333 6.333-32.333 19-45s27.667-19 45-19h256c17.333 0 32.333 6.333 45 19s19 27.667 19 45c0 17.333-6.333 32.333-19 45s-27.667 19-45 19v64h320zM480 486.4c-9.333 0-17-3-23-9s-9-13.667-9-23c0-9.333 3-17 9-23s13.667-9 23-9h390c8 0 15.333 3 22 9s10 13.667 10 23c0 9.333-3.333 17-10 23s-14 9-22 9h-390zM480 358.4c-9.333 0-17-3-23-9s-9-13.667-9-23c0-9.333 3-17 9-23s13.667-9 23-9h390c8 0 15.333 3 22 9s10 13.667 10 23c0 9.333-3.333 17-10 23s-14 9-22 9h-390zM480 230.4c-9.333 0-17-3-23-9s-9-13.667-9-23c0-9.333 3-17 9-23s13.667-9 23-9h390c8 0 15.333 3 22 9s10 13.667 10 23c0 9.333-3.333 17-10 23s-14 9-22 9h-390zM384 194.4c0 48-12.333 88.333-37 121s-54.333 49-89 49c-34.667 0-64.333-16.333-89-49s-37-73-37-121c0-29.334 21-50 63-62s84-12 126 0c42 12 63 32.666 63 62zM310 526.4c-14.667 16-32.667 24-54 24s-39.667-7.667-55-23c-15.333-15.333-23-33.667-23-55s7.667-39.333 23-54c15.334-14.667 33.667-22 55-22s39.667 7.333 55 22c15.333 14.667 23 32.667 23 54s-8 39.333-24 54zM448 934.4h128v-256h-128v256z" />
<glyph unicode="&#xe91b;" glyph-name="angle-right" d="M339.161 949.739l478.14-478.14c6.84-6.84 10.261-14.707 10.261-23.599s-3.42-16.759-10.261-23.599l-478.14-478.14c-6.84-6.84-14.707-10.261-23.599-10.261s-16.759 3.42-23.599 10.261l-51.303 51.303c-6.84 6.84-10.261 14.707-10.261 23.599s3.42 16.759 10.261 23.599l403.238 403.239-403.238 403.238c-6.84 6.84-10.261 14.707-10.261 23.599s3.42 16.759 10.261 23.599l51.303 51.303c6.84 6.84 14.707 10.261 23.599 10.261s16.759-3.42 23.599-10.261z" />
<glyph unicode="&#xe91c;" glyph-name="vote-badge" d="M1024 435.2l-113.294-132.075 15.251-176.847-167.762-38.056-87.149-152.222-159.047 69.396-159.047-69.396-87.149 149.984-167.762 40.294 15.251 176.847-113.294 132.075 113.294 134.314-15.251 174.608 167.762 38.056 87.149 152.222 159.047-69.396 159.047 69.396 87.149-152.222 167.762-38.056-15.251-176.847 113.294-132.075zM220.757 508.597l52.804-159.896h30.839l54.135 159.896h-28.177l-40.602-126.528h-0.444l-39.714 126.528h-28.843zM441.737 489.562c8.431 0 15.716-1.717 21.854-5.151s11.13-8.025 14.976-13.773c3.846-5.748 6.693-12.28 8.542-19.595s2.773-14.78 2.773-22.394c0-7.614-0.924-15.079-2.773-22.394s-4.696-13.847-8.542-19.595c-3.846-5.748-8.838-10.339-14.976-13.773s-13.423-5.151-21.854-5.151c-8.431 0-15.716 1.717-21.854 5.151s-11.13 8.025-14.976 13.773c-3.846 5.748-6.693 12.28-8.542 19.595s-2.773 14.78-2.773 22.394c0 7.614 0.924 15.079 2.773 22.394s4.696 13.847 8.542 19.595c3.846 5.748 8.838 10.339 14.976 13.773s13.423 5.151 21.854 5.151zM441.737 512.404c-11.833 0-22.445-2.239-31.838-6.718s-17.343-10.525-23.851-18.139c-6.508-7.614-11.5-16.497-14.976-26.649s-5.214-20.901-5.214-32.248c0-11.496 1.738-22.32 5.214-32.472s8.468-19.035 14.976-26.649c6.508-7.614 14.458-13.623 23.851-18.027s20.005-6.606 31.838-6.606c11.833 0 22.445 2.202 31.838 6.606s17.343 10.413 23.851 18.027c6.508 7.614 11.5 16.497 14.976 26.649s5.214 20.976 5.214 32.472c0 11.347-1.738 22.096-5.214 32.248s-8.468 19.035-14.976 26.649c-6.508 7.614-14.458 13.661-23.851 18.139s-20.005 6.718-31.838 6.718zM527.821 508.597v-24.186h50.142v-135.71h27.733v135.71h50.364v24.186h-128.239zM674.475 508.597v-159.896h115.593v24.186h-87.859v46.804h79.872v22.842h-79.872v41.877h86.306v24.186h-114.039z" />
<glyph unicode="&#xe91d;" glyph-name="dots-badge" d="M1024 439.83l-113.294-130.85 15.251-175.206-167.762-37.703-87.149-150.811-159.047 68.752-159.047-68.752-87.149 148.593-167.762 39.92 15.251 175.206-113.294 130.85 113.294 133.068-15.251 172.989 167.762 37.703 87.149 150.811 159.047-68.752 159.047 68.752 87.149-150.811 167.762-37.703-15.251-175.206 113.294-130.85zM293.318 383.913c34.224 0 61.969 27.744 61.969 61.969s-27.744 61.969-61.969 61.969c-34.224 0-61.969-27.744-61.969-61.969s27.744-61.969 61.969-61.969zM491.617 383.913c34.224 0 61.969 27.744 61.969 61.969s-27.744 61.969-61.969 61.969c-34.224 0-61.969-27.744-61.969-61.969s27.744-61.969 61.969-61.969zM689.916 383.913c34.224 0 61.969 27.744 61.969 61.969s-27.744 61.969-61.969 61.969c-34.224 0-61.969-27.744-61.969-61.969s27.744-61.969 61.969-61.969z" />
<glyph unicode="&#xe91e;" glyph-name="check-badge" d="M1024 439.83l-113.294-130.85 15.251-175.206-167.762-37.703-87.149-150.811-159.047 68.752-159.047-68.752-87.149 148.593-167.762 39.92 15.251 175.206-113.294 130.85 113.294 133.068-15.251 172.989 167.762 37.703 87.149 150.811 159.047-68.752 159.047 68.752 87.149-150.811 167.762-37.703-15.251-175.206 113.294-130.85zM396.532 329.485l-123.54 121.489-41.643-40.951 165.183-162.44 355.352 349.45-41.643 40.951-313.709-308.499z" />
<glyph unicode="&#xe91f;" glyph-name="angle-left" d="M718.801 949.739l-478.14-478.14c-6.84-6.84-10.261-14.707-10.261-23.599s3.42-16.759 10.261-23.599l478.14-478.14c6.84-6.84 14.707-10.261 23.599-10.261s16.759 3.42 23.599 10.261l51.303 51.303c6.84 6.84 10.261 14.707 10.261 23.599s-3.42 16.759-10.261 23.599l-403.238 403.239 403.238 403.238c6.84 6.84 10.261 14.707 10.261 23.599s-3.42 16.759-10.261 23.599l-51.303 51.303c-6.84 6.84-14.707 10.261-23.599 10.261s-16.759-3.42-23.599-10.261z" />
<glyph unicode="&#xe920;" glyph-name="install" d="M1007.837 396.98l-174.184 433.858c-6.412 15.673-16.742 28.318-30.99 37.936s-29.921 14.426-47.019 14.426h-133.577l21.372-222.272h147.469l-278.908-230.821-278.908 230.821h147.469l21.372 222.272h-133.577c-17.098 0-32.771-4.809-47.019-14.426s-24.578-22.263-30.99-37.936l-174.184-433.858c-7.837-19.948-12.823-40.429-14.961-61.445s-1.425-42.21 2.137-63.582l32.058-193.419c3.562-19.948 13.18-36.689 28.853-50.225s33.839-20.304 54.499-20.304h786.5c20.66 0 38.826 6.768 54.499 20.304s25.29 30.277 28.853 50.225l32.058 193.419c3.562 21.372 4.274 42.566 2.137 63.582s-7.124 41.498-14.961 61.445zM892.427 158.679c-1.425-11.399-6.768-21.016-16.029-28.853s-19.947-11.755-32.058-11.755h-664.678c-12.111 0-22.797 3.918-32.058 11.755s-14.604 17.454-16.029 28.853l-20.304 120.754c-2.85 14.961 0.712 28.14 10.686 39.539s22.797 17.098 38.47 17.098h703.148c15.673 0 28.496-5.699 38.47-17.098s13.536-24.578 10.686-39.539l-20.304-120.754z" />
<glyph unicode="&#xe921;" glyph-name="update-circle" d="M512-64c-282.77 0-512 229.23-512 512s229.23 512 512 512c282.77 0 512-229.23 512-512s-229.23-512-512-512zM691.534 479.347l-191.086 268.669c-2.873 4.789-8.141 7.184-15.804 7.184-6.705 0-11.494-2.394-14.367-7.184l-191.086-268.669c-4.789-5.747-5.268-11.973-1.437-18.678 2.873-6.705 8.62-10.057 17.241-10.057h89.078v-239.935c0-12.452 6.226-18.678 18.678-18.678h166.661c11.494 0 17.241 6.226 17.241 18.678v239.935h90.514c6.705 0 11.973 3.352 15.804 10.057s3.352 12.931-1.437 18.678z" />
</font>
</defs>
</svg>
